.
..............................Site Info...........................

 -   http://www.scenetime.com  *_*    

Scenetime .Always on time . friendly online private torrent community ..

     We care to share . Join us on  http://www.scenetime.com 

    Be the first to get new release at  http://www.scenetime.com

        Seed back for speed


...................................NFO:.................................................
[IMG]http://imgon.net/di-5P12.jpg[/IMG]


About Cherry.2012.VODRIP.XviD.AC3.5.1.HS
 
http://www.imdb.com/title/tt1945062/


Format                                   : AVI
Format/Info                              : Audio Video Interleave
File size                                : 1.55 GiB
Duration                                 : 1h 42mn
Overall bit rate                         : 2 169 Kbps


Video
ID                                       : 0
Format                                   : MPEG-4 Visual
Format profile                           : Simple@L1
Format settings, BVOP                    : No
Format settings, QPel                    : No
Format settings, GMC                     : No warppoints
Format settings, Matrix                  : Default (H.263)
Codec ID                                 : XVID
Duration                                 : 1h 42mn
Bit rate                                 : 1 776 Kbps
Width                                    : 720 pixels
Height                                   : 406 pixels
Display aspect ratio                     : 16:9
Frame rate                               : 23.976 fps
Color space                              : YUV
Chroma subsampling                       : 4:2:0
Bit depth                                : 8 bits
Scan type                                : Progressive
Compression mode                         : Lossy
Bits/(Pixel*Frame)                       : 0.253
Stream size                              : 1.27 GiB (82%)
Writing library                          : Lavc52.116.0

Audio
ID                                       : 1
Format                                   : AC-3
Format/Info                              : Audio Coding 3
Mode extension                           : CM (complete main)
Format settings, Endianness              : Big
Codec ID                                 : 2000
Duration                                 : 1h 42mn
Bit rate mode                            : Constant
Bit rate                                 : 384 Kbps
Channel(s)                               : 6 channels
Channel positions                        : Front: L C R, Side: L R, LFE
Sampling rate                            : 44.1 KHz
Bit depth                                : 16 bits
Compression mode                         : Lossy
Stream size                              : 281 MiB (18%)
Alignment                                : Split accross interleaves
Interleave, duration                     : 42 ms (1.00 video frame)
Interleave, preload duration             : 500 ms




[IMG]http://i.imgur.com/HPReE.png[/IMG]

[IMG]http://i.imgur.com/9Dp4q.png[/IMG]

[IMG]http://i.imgur.com/OKYRz.png[/IMG]

[IMG]http://imgon.net/di-3NAE.png[/IMG]

[IMG]http://i.imgur.com/ixyTA.png[/IMG]


You Know Where To Find Us...


GREETZ-Everyone Who Loves Us :D
